<svg xmlns="http://www.w3.org/2000/svg" width="1200" height="760" viewBox="0 0 1200 760" role="img" aria-labelledby="title desc">
  <title id="title">HAIC-oriented matrix map of public ultrasound dataset resources</title>
  <desc id="desc">A compact matrix map organizing ready public ultrasound datasets by clinical domain and by the type of human-AI collaboration signal they support.</desc>
  <defs>
    <style>
      .title { font: 700 25px Arial, Helvetica, sans-serif; fill: #172026; }
      .subtitle { font: 400 13px Arial, Helvetica, sans-serif; fill: #53616d; }
      .domain { font: 700 14px Arial, Helvetica, sans-serif; fill: #172026; }
      .row-title { font: 700 13px Arial, Helvetica, sans-serif; fill: #172026; }
      .row-desc { font: 400 10.5px Arial, Helvetica, sans-serif; fill: #66727c; }
      .cell { fill: #ffffff; stroke: #dbe4ea; stroke-width: 1; }
      .cell-alt { fill: #f6fafb; stroke: #dbe4ea; stroke-width: 1; }
      .chip { rx: 12; ry: 12; stroke: #ffffff; stroke-width: 1.5; }
      .chip-text { font: 700 12.5px Arial, Helvetica, sans-serif; fill: #172026; }
      .small { font: 400 12px Arial, Helvetica, sans-serif; fill: #53616d; }
      .legend-title { font: 700 12px Arial, Helvetica, sans-serif; fill: #172026; }
      .legend { font: 400 11px Arial, Helvetica, sans-serif; fill: #34444f; }
      .gap { rx: 12; ry: 12; fill: #fff4cf; stroke: #e1b84d; stroke-width: 1.5; }
      .gap-text { font: 700 11.5px Arial, Helvetica, sans-serif; fill: #7a5c00; }
    </style>
  </defs>

  <rect width="1200" height="760" fill="#ffffff"/>
  <rect x="16" y="16" width="1168" height="710" rx="18" fill="#f8fbfc" stroke="#dfe8ee"/>

  <text x="600" y="54" text-anchor="middle" class="title">HAIC-Oriented Map of Public Ultrasound Dataset Resources</text>
  <text x="600" y="78" text-anchor="middle" class="subtitle">Ready public or request-access resources, grouped by clinical domain and by the richest human-AI collaboration signal they can currently support.</text>

  <!-- Matrix geometry: x=300..1140, six columns each 140; y=128..578, five rows each 90. -->

  <!-- Column headers -->
  <g>
    <rect x="300" y="112" width="140" height="42" rx="9" fill="#eef6ff" stroke="#dbe4ea"/>
    <rect x="440" y="112" width="140" height="42" rx="9" fill="#ecfbf6" stroke="#dbe4ea"/>
    <rect x="580" y="112" width="140" height="42" rx="9" fill="#fff0f5" stroke="#dbe4ea"/>
    <rect x="720" y="112" width="140" height="42" rx="9" fill="#f5efff" stroke="#dbe4ea"/>
    <rect x="860" y="112" width="140" height="42" rx="9" fill="#fff7e8" stroke="#dbe4ea"/>
    <rect x="1000" y="112" width="140" height="42" rx="9" fill="#eefbfc" stroke="#dbe4ea"/>
    <text x="370" y="138" text-anchor="middle" class="domain">Cardiac</text>
    <text x="510" y="138" text-anchor="middle" class="domain">Fetal / OB</text>
    <text x="650" y="138" text-anchor="middle" class="domain">Breast</text>
    <text x="790" y="138" text-anchor="middle" class="domain">Thyroid</text>
    <text x="930" y="138" text-anchor="middle" class="domain">POCUS</text>
    <text x="1070" y="138" text-anchor="middle" class="domain">General US VLM</text>
  </g>

  <!-- Row labels -->
  <g>
    <text x="38" y="184" class="row-title">5. Interaction traces</text>
    <text x="38" y="203" class="row-desc">AI suggestions, human corrections, feedback, outcomes</text>
    <text x="38" y="274" class="row-title">4. Skill / workflow</text>
    <text x="38" y="293" class="row-desc">Acquisition process, protocol, operator behavior</text>
    <text x="38" y="364" class="row-title">3. Language / reasoning</text>
    <text x="38" y="383" class="row-desc">Reports, VQA, captions, multimodal reasoning</text>
    <text x="38" y="454" class="row-title">2. Measurement / quality</text>
    <text x="38" y="473" class="row-desc">Biometrics, contours, quality scores, view checks</text>
    <text x="38" y="544" class="row-title">1. Labels / masks</text>
    <text x="38" y="563" class="row-desc">Classification labels, masks, boundaries</text>
  </g>

  <!-- Matrix cells -->
  <g>
    <!-- row 5 -->
    <rect x="300" y="158" width="140" height="90" class="cell"/>
    <rect x="440" y="158" width="140" height="90" class="cell-alt"/>
    <rect x="580" y="158" width="140" height="90" class="cell"/>
    <rect x="720" y="158" width="140" height="90" class="cell-alt"/>
    <rect x="860" y="158" width="140" height="90" class="cell"/>
    <rect x="1000" y="158" width="140" height="90" class="cell-alt"/>
    <!-- row 4 -->
    <rect x="300" y="248" width="140" height="90" class="cell-alt"/>
    <rect x="440" y="248" width="140" height="90" class="cell"/>
    <rect x="580" y="248" width="140" height="90" class="cell-alt"/>
    <rect x="720" y="248" width="140" height="90" class="cell"/>
    <rect x="860" y="248" width="140" height="90" class="cell-alt"/>
    <rect x="1000" y="248" width="140" height="90" class="cell"/>
    <!-- row 3 -->
    <rect x="300" y="338" width="140" height="90" class="cell"/>
    <rect x="440" y="338" width="140" height="90" class="cell-alt"/>
    <rect x="580" y="338" width="140" height="90" class="cell"/>
    <rect x="720" y="338" width="140" height="90" class="cell-alt"/>
    <rect x="860" y="338" width="140" height="90" class="cell"/>
    <rect x="1000" y="338" width="140" height="90" class="cell-alt"/>
    <!-- row 2 -->
    <rect x="300" y="428" width="140" height="90" class="cell-alt"/>
    <rect x="440" y="428" width="140" height="90" class="cell"/>
    <rect x="580" y="428" width="140" height="90" class="cell-alt"/>
    <rect x="720" y="428" width="140" height="90" class="cell"/>
    <rect x="860" y="428" width="140" height="90" class="cell-alt"/>
    <rect x="1000" y="428" width="140" height="90" class="cell"/>
    <!-- row 1 -->
    <rect x="300" y="518" width="140" height="90" class="cell"/>
    <rect x="440" y="518" width="140" height="90" class="cell-alt"/>
    <rect x="580" y="518" width="140" height="90" class="cell"/>
    <rect x="720" y="518" width="140" height="90" class="cell-alt"/>
    <rect x="860" y="518" width="140" height="90" class="cell"/>
    <rect x="1000" y="518" width="140" height="90" class="cell-alt"/>
  </g>

  <!-- Non-public model-driven gap -->
  <rect x="454" y="181" width="112" height="26" class="gap"/>
  <text x="510" y="199" text-anchor="middle" class="gap-text">Sonomate / PULSE</text>

  <!-- Ready resources only -->
  <!-- Cardiac -->
  <rect x="306" y="448" width="128" height="26" fill="#b9d7ff" class="chip"/>
  <text x="370" y="466" text-anchor="middle" class="chip-text">EchoNet-Dynamic</text>
  <rect x="306" y="481" width="128" height="26" fill="#b9d7ff" class="chip"/>
  <text x="370" y="499" text-anchor="middle" class="chip-text">EchoNet-Pediatric</text>
  <rect x="326" y="548" width="88" height="26" fill="#b9d7ff" class="chip"/>
  <text x="370" y="566" text-anchor="middle" class="chip-text">CAMUS</text>

  <!-- Fetal -->
  <rect x="446" y="272" width="128" height="26" fill="#9ce8d4" class="chip"/>
  <text x="510" y="290" text-anchor="middle" class="chip-text">Fetal Planes DB</text>
  <rect x="472" y="448" width="76" height="26" fill="#9ce8d4" class="chip"/>
  <text x="510" y="466" text-anchor="middle" class="chip-text">HC18</text>

  <!-- Breast -->
  <rect x="594" y="448" width="112" height="26" fill="#e9a3b7" class="chip"/>
  <text x="650" y="466" text-anchor="middle" class="chip-text">BUS-UCLM</text>
  <rect x="608" y="548" width="84" height="26" fill="#e9a3b7" class="chip"/>
  <text x="650" y="566" text-anchor="middle" class="chip-text">BUSI</text>
  <rect x="601" y="581" width="98" height="26" fill="#e9a3b7" class="chip"/>
  <text x="650" y="599" text-anchor="middle" class="chip-text">OASBUD</text>

  <!-- Thyroid -->
  <rect x="728" y="448" width="124" height="26" fill="#c8b2f1" class="chip"/>
  <text x="790" y="466" text-anchor="middle" class="chip-text">TN-SCUI2020</text>
  <rect x="750" y="481" width="80" height="26" fill="#c8b2f1" class="chip"/>
  <text x="790" y="499" text-anchor="middle" class="chip-text">TN3K</text>

  <!-- POCUS -->
  <rect x="874" y="272" width="112" height="26" fill="#ffd083" class="chip"/>
  <text x="930" y="290" text-anchor="middle" class="chip-text">COVID-BLUES</text>
  <rect x="862" y="362" width="136" height="26" fill="#ffd083" class="chip"/>
  <text x="930" y="380" text-anchor="middle" class="chip-text">COVID-19 POCUS</text>
  <rect x="854" y="548" width="152" height="26" fill="#ffd083" class="chip"/>
  <text x="930" y="566" text-anchor="middle" class="chip-text">Nerve Segmentation</text>

  <!-- General -->
  <rect x="1018" y="362" width="104" height="26" fill="#9edce2" class="chip"/>
  <text x="1070" y="380" text-anchor="middle" class="chip-text">U2-BENCH</text>
  <rect x="1030" y="548" width="80" height="26" fill="#b8c9d6" class="chip"/>
  <text x="1070" y="566" text-anchor="middle" class="chip-text">PICMUS</text>

  <!-- Legend and interpretation -->
  <g transform="translate(38 636)">
    <rect x="0" y="0" width="500" height="60" rx="12" fill="#ffffff" stroke="#dfe8ee"/>
    <text x="18" y="24" class="legend-title">Encoding</text>
    <rect x="104" y="12" width="34" height="20" fill="#b9d7ff" class="chip"/>
    <text x="152" y="28" class="legend">ready public or request-access dataset</text>
    <rect x="104" y="36" width="34" height="18" class="gap"/>
    <text x="152" y="50" class="legend">important non-public data gap highlighted by recent models</text>
  </g>

  <text x="570" y="648" class="small">Interpretation: ready public ultrasound resources mostly cluster around labels, masks,</text>
  <text x="570" y="670" class="small">measurements, and benchmark tasks. Scan-time interaction, speech, gaze, feedback,</text>
  <text x="570" y="692" class="small">and human correction traces remain scarce.</text>
</svg>
